<svg width="20" height="16" viewBox="0 0 20 16" fill="none" xmlns="http://www.w3.org/2000/svg">
<path d="M14.95 12.6167C13.5255 13.7025 11.7909 14.3041 10 14.3334C4.16666 14.3334 0.833328 7.66669 0.833328 7.66669C1.8699 5.73493 3.30761 4.04719 5.05 2.71669M8.25 1.20002C8.82361 1.06575 9.41088 0.998637 10 1.00002C15.8333 1.00002 19.1667 7.66669 19.1667 7.66669C18.6608 8.61303 18.0575 9.50397 17.3667 10.325M11.7667 9.43335C11.5378 9.67898 11.2618 9.87598 10.9551 10.0126C10.6485 10.1493 10.3174 10.2227 9.98174 10.2287C9.64606 10.2346 9.31263 10.1728 9.00134 10.0471C8.69004 9.92136 8.40726 9.73421 8.16987 9.49681C7.93247 9.25942 7.74532 8.97664 7.61959 8.66534C7.49385 8.35405 7.4321 8.02062 7.43802 7.68494C7.44395 7.34927 7.51742 7.01822 7.65406 6.71156C7.7907 6.4049 7.98771 6.12889 8.23333 5.90002" stroke="#191A15" stroke-width="2" stroke-linecap="round" stroke-linejoin="round"/>
</svg>
