<svg xmlns="http://www.w3.org/2000/svg" style="display:none">

  <symbol id="icon-arrow" viewBox="0 0 22 24" fill="none">
    <g filter="url(#arrow-shadow)">
      <path d="M16.6216 0.860936C16.5447 0.314027 16.0391 -0.0670213 15.4921 0.00984164L6.57973 1.2624C6.03282 1.33926 5.65177 1.84493 5.72864 2.39184C5.8055 2.93875 6.31117 3.3198 6.85808 3.24294L14.7802 2.12955L15.8936 10.0517C15.9705 10.5986 16.4761 10.9797 17.023 10.9028C17.57 10.8259 17.951 10.3203 17.8741 9.77335L16.6216 0.860936ZM5.59728 15.9774L16.43 1.60193L14.8327 0.398295L4.00001 14.7737L5.59728 15.9774Z" fill="currentColor"/>
    </g>
    <defs>
      <filter id="arrow-shadow" x="0" y="0" width="21.884" height="23.9774" filterUnits="userSpaceOnUse" color-interpolation-filters="sRGB">
        <feFlood flood-opacity="0" result="BackgroundImageFix"/>
        <feColorMatrix in="SourceAlpha" type="matrix" values="0 0 0 0 0 0 0 0 0 0 0 0 0 0 0 0 0 0 127 0" result="hardAlpha"/>
        <feOffset dy="4"/>
        <feGaussianBlur stdDeviation="2"/>
        <feComposite in2="hardAlpha" operator="out"/>
        <feColorMatrix type="matrix" values="0 0 0 0 0 0 0 0 0 0 0 0 0 0 0 0 0 0 0.25 0"/>
        <feBlend mode="normal" in2="BackgroundImageFix" result="effect1_dropShadow"/>
        <feBlend mode="normal" in="SourceGraphic" in2="effect1_dropShadow" result="shape"/>
      </filter>
    </defs>
  </symbol>

  <symbol id="icon-check" viewBox="0 0 30 30" fill="none">
    <path fill-rule="evenodd" clip-rule="evenodd" d="M7.5 12.5L5 15L12.5 22.5L25 10L22.5 7.5L12.5 17.5L7.5 12.5Z" fill="currentColor"/>
  </symbol>

  <symbol id="icon-users" viewBox="0 0 25 25" fill="none">
    <g clip-path="url(#users-clip)">
      <path d="M14.2705 16.994L13.8427 18.5907L2.66622 15.5959L3.09404 13.9993C3.09404 13.9993 3.94968 10.806 9.53793 12.3034C15.1262 13.8007 14.2705 16.994 14.2705 16.994ZM13.5086 8.66129C13.6566 8.10866 13.6375 7.52454 13.4536 6.98278C13.2697 6.44102 12.9293 5.96596 12.4754 5.61768C12.0215 5.26939 11.4745 5.06352 10.9036 5.0261C10.3327 4.98869 9.76356 5.1214 9.26809 5.40746C8.77262 5.69352 8.3731 6.12008 8.12006 6.6332C7.86702 7.14632 7.77181 7.72295 7.84649 8.29018C7.92117 8.8574 8.16237 9.38975 8.53959 9.81989C8.91682 10.25 9.41313 10.5587 9.96575 10.7067C10.7068 10.9053 11.4964 10.8013 12.1608 10.4178C12.8252 10.0342 13.31 9.40234 13.5086 8.66129ZM15.0783 13.7879C15.4673 14.2992 15.7395 14.8895 15.8758 15.5174C16.0121 16.1452 16.0092 16.7953 15.8672 17.4219L15.4394 19.0185L18.6327 19.8741L19.0605 18.2775C19.0605 18.2775 19.837 15.3796 15.0783 13.7879ZM16.2531 6.40194C15.7044 6.25164 15.1229 6.27193 14.5861 6.4601C14.8895 7.2676 14.9325 8.1498 14.7093 8.98302C14.486 9.81624 14.0076 10.5587 13.3411 11.1063C13.712 11.5377 14.2054 11.846 14.7557 11.9902C15.4967 12.1888 16.2863 12.0848 16.9507 11.7012C17.6151 11.3176 18.0999 10.6858 18.2985 9.94475C18.4971 9.2037 18.3931 8.41412 18.0095 7.74972C17.6259 7.08531 16.9941 6.6005 16.2531 6.40194Z" fill="currentColor"/>
    </g>
    <defs>
      <clipPath id="users-clip">
        <rect width="19.8356" height="19.8356" fill="white" transform="translate(5.13385) rotate(15)"/>
      </clipPath>
    </defs>
  </symbol>

  <symbol id="icon-question" viewBox="0 0 10 17" fill="none">
    <path d="M2.5 5.3125C2.5 4.14043 3.39687 3.1875 4.5 3.1875H5.5C6.60313 3.1875 7.5 4.14043 7.5 5.3125V5.43203C7.5 6.15586 7.15313 6.82988 6.58125 7.21836L5.2625 8.11817C4.8753 8.38268 4.5568 8.74625 4.33622 9.17554C4.11564 9.60483 4.00003 10.0861 4 10.5752V10.625C4 11.2127 4.44688 11.6875 5 11.6875C5.55312 11.6875 6 11.2127 6 10.625V10.5785C6 10.3063 6.13125 10.0539 6.34375 9.90781L7.6625 9.00801C8.80625 8.22442 9.5 6.87969 9.5 5.43203V5.3125C9.5 2.96504 7.70937 1.0625 5.5 1.0625H4.5C2.29063 1.0625 0.5 2.96504 0.5 5.3125C0.5 5.9002 0.946875 6.375 1.5 6.375C2.05313 6.375 2.5 5.9002 2.5 5.3125ZM5 15.9375C5.33152 15.9375 5.64946 15.7976 5.88388 15.5485C6.1183 15.2994 6.25 14.9616 6.25 14.6094C6.25 14.2571 6.1183 13.9193 5.88388 13.6703C5.64946 13.4212 5.33152 13.2813 5 13.2813C4.66848 13.2813 4.35054 13.4212 4.11612 13.6703C3.8817 13.9193 3.75 14.2571 3.75 14.6094C3.75 14.9616 3.8817 15.2994 4.11612 15.5485C4.35054 15.7976 4.66848 15.9375 5 15.9375Z" fill="currentColor"/>
  </symbol>

  <symbol id="icon-eye-off" viewBox="0 0 20 20" fill="none">
    <g clip-path="url(#eye-off-clip)">
      <path d="M14.95 14.9499C13.5255 16.0358 11.7909 16.6373 10 16.6666C4.16666 16.6666 0.833328 9.99994 0.833328 9.99994C1.8699 8.06819 3.30761 6.38045 5.05 5.04994M8.25 3.53327C8.82361 3.39901 9.41088 3.33189 10 3.33327C15.8333 3.33327 19.1667 9.99994 19.1667 9.99994C18.6608 10.9463 18.0575 11.8372 17.3667 12.6583M11.7667 11.7666C11.5378 12.0122 11.2618 12.2092 10.9551 12.3459C10.6485 12.4825 10.3174 12.556 9.98174 12.5619C9.64606 12.5678 9.31263 12.5061 9.00134 12.3803C8.69004 12.2546 8.40726 12.0675 8.16987 11.8301C7.93247 11.5927 7.74532 11.3099 7.61959 10.9986C7.49385 10.6873 7.4321 10.3539 7.43802 10.0182C7.44395 9.68252 7.51742 9.35148 7.65406 9.04481C7.7907 8.73815 7.98771 8.46215 8.23333 8.23327" stroke="currentColor" stroke-width="2" stroke-linecap="round" stroke-linejoin="round"/>
      <path d="M0.833328 0.833252L19.1667 19.1666" stroke="currentColor" stroke-width="2" stroke-linecap="round" stroke-linejoin="round"/>
    </g>
    <defs>
      <clipPath id="eye-off-clip">
        <rect width="20" height="20" fill="white"/>
      </clipPath>
    </defs>
  </symbol>

  <symbol id="icon-eye-on" viewBox="0 0 20 16" fill="none">
    <path d="M14.95 12.6167C13.5255 13.7025 11.7909 14.3041 10 14.3334C4.16666 14.3334 0.833328 7.66669 0.833328 7.66669C1.8699 5.73493 3.30761 4.04719 5.05 2.71669M8.25 1.20002C8.82361 1.06575 9.41088 0.998637 10 1.00002C15.8333 1.00002 19.1667 7.66669 19.1667 7.66669C18.6608 8.61303 18.0575 9.50397 17.3667 10.325M11.7667 9.43335C11.5378 9.67898 11.2618 9.87598 10.9551 10.0126C10.6485 10.1493 10.3174 10.2227 9.98174 10.2287C9.64606 10.2346 9.31263 10.1728 9.00134 10.0471C8.69004 9.92136 8.40726 9.73421 8.16987 9.49681C7.93247 9.25942 7.74532 8.97664 7.61959 8.66534C7.49385 8.35405 7.4321 8.02062 7.43802 7.68494C7.44395 7.34927 7.51742 7.01822 7.65406 6.71156C7.7907 6.4049 7.98771 6.12889 8.23333 5.90002" stroke="currentColor" stroke-width="2" stroke-linecap="round" stroke-linejoin="round"/>
  </symbol>

  <symbol id="icon-user" viewBox="0 0 24 24" fill="none">
    <path d="M12 4C13.0609 4 14.0783 4.42143 14.8284 5.17157C15.5786 5.92172 16 6.93913 16 8C16 9.06087 15.5786 10.0783 14.8284 10.8284C14.0783 11.5786 13.0609 12 12 12C10.9391 12 9.92172 11.5786 9.17157 10.8284C8.42143 10.0783 8 9.06087 8 8C8 6.93913 8.42143 5.92172 9.17157 5.17157C9.92172 4.42143 10.9391 4 12 4ZM12 14C16.42 14 20 15.79 20 18V20H4V18C4 15.79 7.58 14 12 14Z" fill="currentColor"/>
  </symbol>

  <symbol id="icon-palette" viewBox="0 0 64 64" fill="none">
    <path d="M32 4C16.5 4 4 15.2 4 29c0 8.3 4.8 15.6 12 20 2 1.2 4 1 5.5-.2 1.5-1.2 2-3 1.5-4.8-.3-1 0-2 .8-2.5.8-.5 1.8-.5 2.7 0C28.5 42.5 30.2 43 32 43c13.3 0 24-8.7 24-19.5S45.3 4 32 4z" fill="#F9BC47"/>
    <circle cx="24" cy="16" r="4" fill="#2D2A3E"/>
    <circle cx="14" cy="28" r="4" fill="#4A5568"/>
    <circle cx="18" cy="38" r="4" fill="#A0AEC0"/>
    <circle cx="28" cy="43" r="4" fill="#48BB78"/>
    <circle cx="38" cy="42" r="4" fill="#4299E1"/>
    <circle cx="46" cy="35" r="4" fill="#FC4E6F"/>
    <rect x="44" y="6" width="4" height="18" rx="2" fill="#2D3748" transform="rotate(40 44 6)"/>
    <ellipse cx="36" cy="14" rx="3" ry="2" fill="#FC4E6F" transform="rotate(40 36 14)"/>
    <ellipse cx="33" cy="17" rx="3.5" ry="2.5" fill="#E2E8F0" transform="rotate(40 33 17)"/>
  </symbol>

  <symbol id="icon-chevron" viewBox="0 0 20 20" fill="none">
    <path d="M5 12.5L10 7.5L15 12.5" stroke="currentColor" stroke-width="2" stroke-linecap="round" stroke-linejoin="round"/>
  </symbol>

  <symbol id="icon-star" viewBox="0 0 16 16" fill="none">
    <g clip-path="url(#star-clip)">
      <path d="M9.7998 4.69727C9.95896 4.99878 10.249 5.20939 10.585 5.26758L14.3848 5.92383L11.6973 8.69141C11.4597 8.93598 11.3489 9.27679 11.3975 9.61426L11.9463 13.4316L8.48535 11.7305L8.36816 11.6807C8.13008 11.5961 7.86992 11.5961 7.63184 11.6807L7.51465 11.7305L4.05273 13.4316L4.60254 9.61426C4.65107 9.27679 4.54025 8.93598 4.30273 8.69141L1.61426 5.92383L5.41504 5.26758C5.75098 5.20939 6.04104 4.99878 6.2002 4.69727L8 1.28613L9.7998 4.69727Z" fill="currentColor" stroke="currentColor" stroke-width="1.2"/>
    </g>
    <defs>
      <clipPath id="star-clip"><rect width="16" height="16" fill="white"/></clipPath>
    </defs>
  </symbol>

  <symbol id="icon-heart" viewBox="0 0 26 26" fill="none">
    <path d="M22.5766 4.99416C22.0233 4.44058 21.3663 4.00144 20.6433 3.70184C19.9202 3.40223 19.1452 3.24802 18.3625 3.24802C17.5798 3.24802 16.8047 3.40223 16.0817 3.70184C15.3586 4.00144 14.7016 4.44058 14.1483 4.99416L13 6.14249L11.8516 4.99416C10.734 3.87649 9.21809 3.2486 7.63747 3.2486C6.05685 3.2486 4.54097 3.87649 3.4233 4.99416C2.30563 6.11183 1.67773 7.62771 1.67773 9.20833C1.67773 10.7889 2.30563 12.3048 3.4233 13.4225L4.57163 14.5708L13 22.9992L21.4283 14.5708L22.5766 13.4225C23.1302 12.8692 23.5693 12.2122 23.869 11.4891C24.1686 10.766 24.3228 9.99102 24.3228 9.20833C24.3228 8.42563 24.1686 7.65061 23.869 6.92753C23.5693 6.20445 23.1302 5.54748 22.5766 4.99416Z" stroke="currentColor" stroke-width="2" stroke-linecap="round" stroke-linejoin="round"/>
  </symbol>

  <symbol id="icon-heart-filled" viewBox="0 0 26 26" fill="none">
    <path d="M22.5766 4.99417C22.0233 4.44059 21.3663 4.00145 20.6433 3.70184C19.9202 3.40223 19.1452 3.24802 18.3625 3.24802C17.5798 3.24802 16.8047 3.40223 16.0817 3.70184C15.3586 4.00145 14.7016 4.44059 14.1483 4.99417L13 6.1425L11.8516 4.99417C10.734 3.8765 9.21809 3.2486 7.63747 3.2486C6.05685 3.2486 4.54097 3.8765 3.4233 4.99417C2.30563 6.11183 1.67773 7.62772 1.67773 9.20833C1.67773 10.789 2.30563 12.3048 3.4233 13.4225L4.57163 14.5708L13 22.9992L21.4283 14.5708L22.5766 13.4225C23.1302 12.8692 23.5693 12.2122 23.869 11.4891C24.1686 10.7661 24.3228 9.99103 24.3228 9.20833C24.3228 8.42564 24.1686 7.65061 23.869 6.92753C23.5693 6.20445 23.1302 5.54749 22.5766 4.99417Z" fill="currentColor" stroke="currentColor" stroke-width="2" stroke-linecap="round" stroke-linejoin="round"/>
  </symbol>

  <symbol id="icon-close" viewBox="0 0 32 32" fill="none">
    <path d="M24 8L8 24" stroke="currentColor" stroke-width="2.5" stroke-linecap="round" stroke-linejoin="round"/>
    <path d="M8 8L24 24" stroke="currentColor" stroke-width="2.5" stroke-linecap="round" stroke-linejoin="round"/>
  </symbol>

  <symbol id="icon-clock" viewBox="0 0 20 20" fill="none">
    <g clip-path="url(#clock-clip)">
      <path d="M9.99984 18.3333C14.6022 18.3333 18.3332 14.6024 18.3332 10C18.3332 5.39763 14.6022 1.66667 9.99984 1.66667C5.39746 1.66667 1.6665 5.39763 1.6665 10C1.6665 14.6024 5.39746 18.3333 9.99984 18.3333Z" stroke="currentColor" stroke-width="1.5" stroke-linecap="round" stroke-linejoin="round"/>
      <path d="M10 5V10L13.3333 11.6667" stroke="currentColor" stroke-width="1.5" stroke-linecap="round" stroke-linejoin="round"/>
    </g>
    <defs>
      <clipPath id="clock-clip"><rect width="20" height="20" fill="white"/></clipPath>
    </defs>
  </symbol>

</svg>